<?xml version="1.0" encoding="UTF-8" standalone="no"?>
<!-- Created with Inkscape (http://www.inkscape.org/) -->

<svg
   width="100mm"
   height="100mm"
   viewBox="0 0 100 100"
   version="1.1"
   id="svg5"
   inkscape:version="1.2.2 (732a01da63, 2022-12-09)"
   sodipodi:docname="checkerDark.svg"
   xml:space="preserve"
   xmlns:inkscape="http://www.inkscape.org/namespaces/inkscape"
   xmlns:sodipodi="http://sodipodi.sourceforge.net/DTD/sodipodi-0.dtd"
   xmlns="http://www.w3.org/2000/svg"
   xmlns:svg="http://www.w3.org/2000/svg"><sodipodi:namedview
     id="namedview7"
     pagecolor="#ffffff"
     bordercolor="#000000"
     borderopacity="0.25"
     inkscape:showpageshadow="2"
     inkscape:pageopacity="0.0"
     inkscape:pagecheckerboard="0"
     inkscape:deskcolor="#d1d1d1"
     inkscape:document-units="mm"
     showgrid="false"
     inkscape:zoom="1.4324916"
     inkscape:cx="116.23105"
     inkscape:cy="176.2663"
     inkscape:window-width="1920"
     inkscape:window-height="991"
     inkscape:window-x="-9"
     inkscape:window-y="-9"
     inkscape:window-maximized="1"
     inkscape:current-layer="layer1" /><defs
     id="defs2" /><g
     inkscape:label="Слой 1"
     inkscape:groupmode="layer"
     id="layer1"
     transform="matrix(1.0207385,0,0,1.0187461,-0.94265986,-0.75265739)"><ellipse
       style="display:none;fill:#483d38;fill-opacity:1;stroke:none;stroke-width:0.272288;stroke-opacity:0.273973"
       id="path2246"
       cx="50.578075"
       cy="50.885986"
       rx="48.313717"
       ry="48.012711" /><ellipse
       style="display:none;fill:#897265;fill-opacity:1;stroke:none;stroke-width:0.282191;stroke-opacity:0.273973"
       id="path2244"
       cx="49.90765"
       cy="49.818748"
       rx="48.984142"
       ry="49.079941"
       inkscape:label="path2244" /><g
       transform="matrix(0.0109872,0,0,-0.01113769,-20.325105,121.07326)"
       fill="#000000"
       stroke="none"
       id="g4831"
       style="fill:#2d2622;fill-opacity:1;stroke:#2d2622;stroke-width:145.809;stroke-dasharray:none;stroke-opacity:1"><path
         d="m 6170,10474 c -875,-61 -1661,-365 -2330,-900 -161,-129 -516,-477 -504,-495 4,-7 3,-10 -3,-6 -22,14 -290,-345 -428,-573 -129,-212 -313,-603 -322,-686 -13,-104 92,-169 177,-111 27,18 44,48 95,167 115,272 223,470 379,698 50,73 96,141 101,150 6,9 15,21 21,27 6,5 54,62 107,126 255,307 595,598 960,819 64,40 122,80 127,91 6,10 16,19 22,19 7,0 6,-5 -2,-15 -7,-9 45,13 116,48 424,211 818,327 1324,389 162,20 650,17 830,-5 577,-71 1158,-277 1618,-573 45,-30 82,-51 82,-47 0,4 6,0 13,-8 6,-9 57,-47 112,-86 196,-140 469,-389 635,-581 77,-88 116,-105 177,-76 48,24 78,80 69,128 -14,73 -320,389 -574,594 -176,142 -306,230 -562,383 -77,46 -336,169 -347,165 -8,-3 -12,-2 -9,3 6,9 -86,50 -229,103 -312,116 -629,191 -980,233 -124,15 -558,27 -675,19 z m -789,-231 c -8,-15 -10,-15 -11,-2 0,17 10,32 18,25 2,-3 -1,-13 -7,-23 z m -751,-413 c 0,-5 -2,-10 -4,-10 -3,0 -8,5 -11,10 -3,6 -1,10 4,10 6,0 11,-4 11,-10 z m 4061,-300 c 5,0 9,-4 9,-10 0,-14 -13,-12 -36,6 -17,14 -17,15 -1,10 10,-3 23,-6 28,-6 z M 3329,8945 c 0,-5 -4,-3 -9,5 -5,8 -9,22 -9,30 0,16 17,-16 18,-35 z m 56,-135 c -3,-5 -12,-10 -18,-10 -7,0 -6,4 3,10 19,12 23,12 15,0 z m -402,-467 c -7,-2 -19,-2 -25,0 -7,3 -2,5 12,5 14,0 19,-2 13,-5 z m -323,-463 c 0,-5 -4,-10 -9,-10 -6,0 -13,5 -16,10 -3,6 1,10 9,10 9,0 16,-4 16,-10 z"
         id="path4809"
         style="fill:#2d2622;fill-opacity:1;stroke:#2d2622;stroke-width:145.809;stroke-dasharray:none;stroke-opacity:1" /><path
         d="m 6160,10052 c -20,-11 -43,-34 -54,-56 -16,-32 -17,-44 -7,-76 6,-21 25,-50 42,-64 27,-23 40,-26 106,-26 63,0 74,2 69,15 -3,8 -1,15 4,15 6,0 10,-7 10,-15 0,-13 22,-15 138,-15 441,0 961,-121 1387,-321 271,-127 562,-314 775,-496 109,-93 358,-350 444,-458 624,-784 879,-1769 710,-2744 -173,-992 -773,-1861 -1638,-2370 -427,-251 -897,-405 -1416,-462 -157,-17 -538,-14 -705,6 -503,60 -967,217 -1391,470 -118,71 -148,85 -184,85 -34,0 -48,-6 -76,-34 -28,-28 -34,-42 -34,-76 0,-76 13,-88 210,-203 458,-266 987,-437 1515,-487 174,-17 542,-15 716,4 272,30 526,85 785,172 1811,606 2856,2497 2403,4351 -165,678 -517,1292 -1020,1778 -496,479 -1149,820 -1832,956 -157,31 -202,35 -192,19 3,-5 -1,-10 -9,-10 -8,0 -19,7 -24,16 -13,22 -239,42 -495,43 -178,1 -206,-1 -237,-17 z m 487,-78 c -3,-3 -12,-4 -19,-1 -8,3 -5,6 6,6 11,1 17,-2 13,-5 z m 88,-84 c -3,-5 -13,-10 -21,-10 -8,0 -12,5 -9,10 3,6 13,10 21,10 8,0 12,-4 9,-10 z m 815,-150 c 0,-5 -4,-10 -10,-10 -5,0 -10,5 -10,10 0,6 5,10 10,10 6,0 10,-4 10,-10 z M 9720,5229 c 0,-4 -7,-6 -15,-3 -8,4 -15,10 -15,15 0,4 7,6 15,3 8,-4 15,-10 15,-15 z M 8156,3393 c -8,-15 -15,-25 -16,-21 0,12 23,58 27,54 3,-2 -2,-17 -11,-33 z M 5270,3040 c 13,-9 13,-10 0,-10 -8,0 -22,5 -30,10 -13,9 -13,10 0,10 8,0 22,-5 30,-10 z m 1900,-71 c 0,-6 -7,-6 -20,1 -11,6 -20,15 -20,21 0,6 7,6 20,-1 11,-6 20,-15 20,-21 z m -210,-151 c 0,-6 -6,-5 -15,2 -8,7 -15,14 -15,16 0,2 7,1 15,-2 8,-4 15,-11 15,-16 z"
         id="path4811"
         style="display:none;fill:#2d2622;fill-opacity:1;stroke:#2d2622;stroke-width:145.809;stroke-dasharray:none;stroke-opacity:1" /><path
         d="m 5615,9986 c -615,-139 -1172,-421 -1640,-831 -128,-112 -326,-318 -320,-333 2,-7 1,-11 -4,-8 -31,19 -330,-396 -474,-659 -161,-294 -298,-664 -367,-993 -22,-100 -22,-104 -4,-117 18,-13 18,-14 -2,-9 -20,5 -22,-1 -37,-118 -38,-283 -47,-559 -27,-803 76,-911 473,-1749 1126,-2373 78,-75 157,-141 182,-154 42,-20 48,-20 86,-7 46,16 86,67 86,108 0,37 -28,81 -78,126 -41,37 -43,37 -58,19 -15,-18 -15,-18 -6,1 9,17 -8,38 -121,155 -281,289 -456,536 -632,895 -230,468 -338,902 -352,1420 -13,478 63,913 234,1349 25,64 32,91 24,99 -16,16 -14,32 2,18 11,-8 32,26 105,172 90,182 243,425 353,562 31,39 54,76 51,84 -3,8 0,11 6,7 6,-3 22,9 37,26 75,91 229,248 328,336 257,226 507,392 809,536 276,132 460,193 843,280 79,18 110,44 121,101 8,43 -9,88 -44,115 -33,26 -97,25 -227,-4 z m -830,-346 c 3,-5 2,-10 -4,-10 -5,0 -13,5 -16,10 -3,6 -2,10 4,10 5,0 13,-4 16,-10 z m 125,-120 c 8,-5 11,-10 5,-10 -5,0 -17,5 -25,10 -8,5 -10,10 -5,10 6,0 17,-5 25,-10 z M 3870,8890 c 0,-5 -4,-10 -10,-10 -5,0 -10,5 -10,10 0,6 5,10 10,10 6,0 10,-4 10,-10 z m -670,-920 c 0,-5 -5,-10 -11,-10 -5,0 -7,5 -4,10 3,6 8,10 11,10 2,0 4,-4 4,-10 z M 2970,5305 c 20,-24 6,-28 -15,-5 -10,11 -13,20 -8,20 6,0 16,-7 23,-15 z m 417,-967 c -3,-8 -6,-5 -6,6 -1,11 2,17 5,13 3,-3 4,-12 1,-19 z"
         id="path4813"
         style="display:none;fill:#2d2622;fill-opacity:1;stroke:#2d2622;stroke-width:145.809;stroke-dasharray:none;stroke-opacity:1" /><path
         d="m 6135,9654 c -16,-2 -73,-9 -125,-15 -193,-21 -555,-106 -667,-155 -21,-9 -46,-18 -55,-20 -84,-17 -412,-173 -584,-279 -159,-97 -306,-204 -298,-217 4,-6 2,-8 -4,-4 -21,13 -262,-200 -410,-364 -84,-93 -155,-181 -259,-322 -54,-73 -154,-238 -215,-352 -438,-826 -499,-1797 -169,-2679 66,-174 133,-316 165,-346 18,-17 38,-24 69,-25 53,-1 92,23 114,70 21,43 15,65 -55,219 -134,295 -218,612 -253,953 -17,169 -6,562 20,727 81,499 283,985 563,1356 38,49 67,89 65,89 -8,0 130,148 243,261 252,252 542,452 875,603 211,95 463,176 660,211 61,11 105,24 113,34 10,13 14,13 21,3 6,-10 21,-11 72,-2 35,7 181,14 324,17 209,4 286,2 395,-12 378,-47 684,-139 1010,-302 328,-163 552,-326 812,-589 504,-511 806,-1183 858,-1910 10,-149 19,-173 72,-200 68,-35 166,13 169,84 7,156 -30,447 -87,682 -109,448 -332,902 -624,1270 -106,134 -375,402 -510,509 -328,261 -706,458 -1103,577 -57,17 -83,21 -88,13 -4,-8 -9,-7 -15,4 -12,21 -186,61 -404,93 -100,15 -621,28 -695,18 z m 205,-114 c 0,-5 -5,-10 -11,-10 -5,0 -7,5 -4,10 3,6 8,10 11,10 2,0 4,-4 4,-10 z m -305,-70 c 8,-13 -25,-13 -45,0 -12,8 -9,10 12,10 15,0 30,-4 33,-10 z m -764,-97 c 13,-16 12,-17 -3,-4 -17,13 -22,21 -14,21 2,0 10,-8 17,-17 z m 269,3 c 0,-3 -4,-8 -10,-11 -5,-3 -10,-1 -10,4 0,6 5,11 10,11 6,0 10,-2 10,-4 z m -470,-16 c 0,-5 -5,-10 -11,-10 -5,0 -7,5 -4,10 3,6 8,10 11,10 2,0 4,-4 4,-10 z m 2185,-21 c 11,-16 1,-19 -13,-3 -7,8 -8,14 -3,14 5,0 13,-5 16,-11 z M 3880,8190 c 0,-5 -2,-10 -4,-10 -3,0 -8,5 -11,10 -3,6 -1,10 4,10 6,0 11,-4 11,-10 z"
         id="path4815"
         style="fill:#2d2622;fill-opacity:1;stroke:#2d2622;stroke-width:145.809;stroke-dasharray:none;stroke-opacity:1" /><path
         d="m 6235,9249 c -449,-24 -902,-164 -1305,-405 -178,-106 -236,-154 -250,-203 -27,-101 87,-190 171,-133 138,92 214,140 299,187 210,117 501,223 735,269 760,150 1541,-38 2140,-513 884,-702 1220,-1881 838,-2941 -129,-356 -332,-679 -598,-946 -198,-200 -370,-330 -618,-467 -74,-41 -116,-70 -128,-91 -52,-86 14,-186 115,-173 23,3 82,28 136,57 648,360 1122,933 1351,1635 113,346 159,740 129,1095 -59,689 -348,1317 -827,1795 -347,346 -761,590 -1238,731 -125,36 -377,84 -457,87 -40,1 -75,5 -78,8 -9,11 -271,16 -415,8 z m -52,-199 c 7,-29 -8,-25 -21,5 -16,34 -15,40 2,26 8,-6 16,-21 19,-31 z m -353,24 c 0,-3 -7,-12 -15,-20 -12,-13 -15,-13 -15,-1 0,7 3,17 7,20 8,8 23,9 23,1 z m -870,-318 c 0,-3 -4,-8 -10,-11 -5,-3 -10,-1 -10,4 0,6 5,11 10,11 6,0 10,-2 10,-4 z M 8901,5377 c -10,-9 -11,-8 -5,6 3,10 9,15 12,12 3,-3 0,-11 -7,-18 z m -323,-772 c -3,-3 -9,2 -12,12 -6,14 -5,15 5,6 7,-7 10,-15 7,-18 z"
         id="path4817"
         style="display:none;fill:#2d2622;fill-opacity:1;stroke:#2d2622;stroke-width:145.809;stroke-dasharray:none;stroke-opacity:1" /><path
         d="M 6136.2817,8911.3994 C 5580.561,8860.392 5077.1207,8631.8401 4689.8589,8253.2091 4538.8268,8106.0726 4399.4125,7935.3944 4320.992,7801.9908 c -39.6943,-67.6828 -44.5351,-80.4347 -34.8536,-90.2437 5.809,-5.8854 10.6497,-19.6182 9.6815,-31.3891 -0.9681,-17.6564 -1.9363,-17.6564 -6.7769,2.9428 -3.8727,12.7518 -10.6499,23.5418 -16.4587,24.5227 -4.8408,0.9809 -33.8854,-47.0836 -64.8664,-107.9 -142.3186,-286.4256 -223.6437,-585.6029 -249.7839,-922.0549 -8.7134,-115.7473 -8.7134,-144.1936 2.9045,-172.6399 28.0765,-67.6828 97.7836,-94.1674 160.7136,-61.7974 48.4078,25.5037 56.153,50.0263 67.7709,206.972 22.2675,316.8336 91.0065,570.8892 227.5162,847.5056 165.5545,334.4901 425.9881,627.7821 746.4472,839.6585 104.5607,69.6445 322.3954,176.5637 455.0326,224.6282 405.6568,145.1745 866.4983,159.8882 1287.6455,38.2554 117.1468,-33.3509 310.7776,-111.8236 408.5612,-164.7928 91.0065,-50.0264 121.9874,-53.95 168.459,-21.5799 56.1528,38.2554 66.8027,124.5754 21.2993,175.5828 -27.1083,31.3891 -273.0195,148.1172 -416.3064,198.1436 -145.2232,50.0264 -309.8095,89.2628 -457.9371,109.8619 -131.669,17.6564 -376.6121,24.5227 -493.7588,13.7328 z m -798.7275,-411.9821 c 2.9044,-4.9045 0.9682,-9.809 -3.8725,-9.809 -5.809,0 -10.6499,4.9045 -10.6499,9.809 0,5.8855 1.9365,9.8091 3.8727,9.8091 2.9045,0 7.7453,-3.9236 10.6497,-9.8091 z M 4109.9343,6884.8406 c -2.9044,-2.9428 -11.6179,-3.9237 -18.3949,-0.981 -7.7452,2.9427 -4.8408,5.8855 5.8089,5.8855 10.6498,0.9808 16.4586,-1.9619 12.586,-4.9045 z"
         id="path4819"
         style="fill:#2d2622;fill-opacity:1;stroke:#2d2622;stroke-width:142.092;stroke-dasharray:none;stroke-opacity:1" /><path
         d="m 9694.5764,8610.7455 c -26.0385,-19.6385 -48.3571,-63.8251 -48.3571,-98.1924 0,-16.6927 33.478,-86.4093 87.4147,-179.6921 290.143,-508.6365 455.673,-1028.0741 512.399,-1603.4815 17.669,-185.5835 18.599,-547.9134 0,-745.2801 -23.248,-259.2279 -82.765,-552.8231 -164.6,-814.0148 -60.446,-193.439 -171.1096,-467.3957 -239.9255,-594.0638 -87.4147,-160.0536 -97.6441,-198.3486 -68.8158,-250.3906 32.548,-57.9335 109.7334,-76.5901 155.3006,-39.277 30.6882,25.5301 100.4337,155.144 182.2687,335.818 176.69,391.7876 289.213,790.4486 345.94,1225.4408 27.898,218.969 34.408,640.2143 13.949,870.9664 -50.217,557.7327 -200.868,1075.2065 -454.743,1569.1141 -85.5548,164.9632 -182.269,319.1253 -208.3074,329.9264 -34.4079,13.747 -89.2746,10.8012 -112.5232,-6.8734 z M 10297.18,5543.2157 c 0,-4.9097 -1.86,-9.8193 -3.72,-9.8193 -2.789,0 -7.439,4.9096 -10.229,9.8193 -2.79,5.8915 -0.93,9.8192 3.72,9.8192 5.579,0 10.229,-3.9277 10.229,-9.8192 z m 83.695,-33.3855 c 0,-2.9457 -3.72,-7.8553 -9.299,-10.8011 -4.65,-2.9458 -9.3,-0.9819 -9.3,3.9277 0,5.8915 4.65,10.8011 9.3,10.8011 5.579,0 9.299,-1.9638 9.299,-3.9277 z m -437.0736,-989.7791 c 0,-5.8915 -6.5096,-4.9096 -13.9492,1.9639 -7.4395,6.8734 -13.9491,16.6927 -13.9491,21.6023 0,5.8915 6.5096,4.9096 13.9491,-1.9639 7.4396,-6.8734 13.9492,-16.6927 13.9492,-21.6023 z"
         id="path4821"
         style="fill:#2d2622;fill-opacity:1;stroke:#2d2622;stroke-width:139.332;stroke-dasharray:none;stroke-opacity:1" /><path
         d="m 4423,8443 c -51,-10 -303,-310 -435,-518 -90,-143 -215,-397 -271,-555 -55,-154 -100,-317 -94,-341 3,-10 1,-19 -4,-21 -11,-4 -45,-184 -55,-291 -6,-68 -5,-75 12,-80 16,-4 16,-5 -3,-6 -22,-1 -22,-5 -25,-123 -4,-168 8,-392 27,-518 86,-567 338,-1102 712,-1510 195,-213 470,-441 564,-468 19,-6 28,-11 20,-11 -22,-2 23,-32 154,-105 407,-226 915,-357 1375,-356 103,1 202,7 370,25 96,11 342,63 430,92 71,24 89,34 108,63 34,50 25,104 -22,147 -45,41 -65,42 -209,3 -475,-126 -988,-117 -1432,24 -87,28 -112,33 -124,23 -11,-10 -13,-9 -9,3 3,11 -22,25 -96,55 -373,150 -722,399 -985,704 -348,401 -561,879 -626,1405 -20,158 -20,464 0,630 49,412 211,836 451,1183 69,100 199,257 259,313 46,44 65,80 65,122 -1,82 -67,128 -157,111 z M 3687,6798 c -3,-8 -6,-5 -6,6 -1,11 2,17 5,13 3,-3 4,-12 1,-19 z m 58,-248 c -3,-5 -12,-10 -18,-10 -7,0 -6,4 3,10 19,12 23,12 15,0 z m 455,-1820 c 0,-5 -7,-10 -15,-10 -8,0 -15,5 -15,10 0,6 7,10 15,10 8,0 15,-4 15,-10 z"
         id="path4823"
         style="display:none;fill:#2d2622;fill-opacity:1;stroke:#2d2622;stroke-width:145.809;stroke-dasharray:none;stroke-opacity:1" /><path
         d="m 7866,8290 c -15,-5 -36,-16 -47,-26 -24,-22 -42,-79 -35,-110 4,-15 70,-88 150,-167 78,-78 175,-184 214,-235 225,-294 372,-635 439,-1017 25,-146 25,-520 0,-670 -39,-228 -110,-453 -200,-633 -73,-145 -116,-222 -132,-238 -8,-9 -20,-25 -27,-37 -6,-12 -40,-59 -75,-104 -39,-51 -57,-81 -46,-77 15,4 14,3 -2,-8 -11,-7 -76,-67 -145,-133 -69,-67 -154,-144 -190,-172 -73,-57 -251,-175 -292,-193 -17,-8 -24,-18 -21,-27 5,-12 1,-14 -14,-9 -13,4 -56,-11 -124,-43 -440,-208 -981,-256 -1465,-132 -293,75 -611,234 -837,418 -313,256 -544,578 -685,954 -22,58 -43,120 -47,137 -4,20 -13,32 -23,32 -11,0 -13,3 -5,8 15,9 -27,210 -52,248 -9,14 -33,33 -53,41 -32,13 -42,14 -77,2 -44,-16 -85,-67 -85,-107 0,-34 32,-166 42,-173 5,-3 6,-13 3,-21 -4,-9 17,-85 45,-169 148,-445 407,-822 768,-1122 342,-284 778,-473 1247,-539 139,-20 515,-17 653,5 525,84 977,304 1343,655 104,99 249,261 249,277 0,5 -8,18 -17,29 -18,20 -18,20 9,3 l 27,-17 75,113 c 164,246 274,497 346,787 43,172 60,305 67,510 18,581 -170,1141 -535,1600 -102,129 -303,327 -355,351 -47,21 -50,21 -91,9 z m 204,-250 c 0,-5 -5,-10 -11,-10 -5,0 -7,5 -4,10 3,6 8,10 11,10 2,0 4,-4 4,-10 z m 407,-2842 c -3,-8 -6,-5 -6,6 -1,11 2,17 5,13 3,-3 4,-12 1,-19 z m -137,-223 c -7,-8 -17,-12 -22,-9 -6,4 -5,10 3,15 22,14 33,10 19,-6 z M 5430,4400 c 0,-5 -7,-7 -15,-4 -8,4 -15,8 -15,10 0,2 7,4 15,4 8,0 15,-4 15,-10 z m -93,-6 c -3,-3 -12,-4 -19,-1 -8,3 -5,6 6,6 11,1 17,-2 13,-5 z m 1466,-254 c -8,-30 -21,-34 -15,-5 2,14 8,25 12,25 5,0 6,-9 3,-20 z"
         id="path4825"
         style="fill:#2d2622;fill-opacity:1;stroke:#2d2622;stroke-width:145.809;stroke-dasharray:none;stroke-opacity:1" /><path
         d="m 2467.0652,7302.7526 c -27.0709,-26.1948 -36.0946,-48.5089 -58.1524,-137.7654 -113.297,-458.8945 -135.3548,-969.2085 -62.163,-1453.3276 177.4652,-1182.6479 888.3286,-2218.7987 1942.0908,-2829.0411 121.318,-70.823 139.3653,-78.5845 159.4178,-68.8827 20.0526,10.672 21.0552,9.7018 17.0447,-7.7614 -5.0131,-17.4632 10.0263,-28.1352 116.3049,-77.6143 925.4258,-441.4313 1973.1722,-530.6878 2958.7557,-252.2465 616.6163,173.662 1189.117,490.9104 1662.3574,919.7294 62.163,56.2704 76.1998,74.7038 72.1893,91.1968 -5.0132,16.4931 -4.0105,17.4632 5.0131,5.8211 9.0237,-11.6422 24.0631,-0.9702 92.2418,67.9125 89.2339,90.2266 207.544,225.0815 275.7227,314.3379 32.0841,42.6879 43.1131,65.002 43.1131,92.167 -1.0027,86.3459 -86.2261,140.6759 -166.4363,105.7494 -36.0946,-15.5228 -166.4363,-172.6918 -161.4232,-193.0655 3.0079,-10.672 -1.0026,-14.5527 -12.0315,-12.6123 -10.0263,1.9403 -32.0841,-15.5229 -56.1472,-44.6283 -52.1366,-62.0914 -299.7858,-300.7553 -394.0328,-379.3398 -45.1183,-37.837 -68.1787,-63.0616 -61.1603,-66.9424 13.0341,-8.7316 2.0052,-16.493 -32.0841,-22.3141 -14.0368,-2.9105 -61.1604,-31.0457 -105.276,-63.0616 -471.2352,-343.4432 -1049.7517,-585.0177 -1638.2944,-684.9461 -239.6281,-40.7475 -403.0565,-54.33 -662.7372,-54.33 -285.749,0 -476.2484,16.493 -728.9107,64.0318 -680.7845,128.0635 -1294.3929,416.2066 -1810.7464,851.8168 -314.8253,264.8588 -595.5612,596.6599 -808.1183,951.7453 -56.1472,95.0776 -179.4705,336.652 -201.5283,395.8329 -7.0184,19.4036 -20.0525,35.8967 -29.0762,36.8668 -9.0236,0 -10.0263,2.9106 -3.0079,4.8509 8.021,3.8807 6.0158,17.4632 -9.0236,50.4493 -36.0946,81.495 -119.3128,332.7713 -154.4048,472.477 -40.1051,159.1093 -77.2023,359.9363 -96.2523,523.8965 -17.0446,153.2883 -17.0446,606.3617 1.0027,747.0376 7.0184,59.1809 15.0394,122.2425 16.042,140.6759 2.0053,18.4334 20.0526,112.5408 41.1078,208.5885 20.0525,96.0476 39.1025,195.976 42.1103,221.2007 4.0106,43.658 2.0053,48.5089 -33.0867,79.5546 -30.0788,28.1352 -44.1156,33.9563 -82.2155,33.9563 -37.0972,0 -50.1314,-4.8509 -78.205,-32.0159 z m 14.0368,-146.497 c -2.0053,-1.9403 -15.0394,-8.7316 -29.0762,-15.5228 -23.0605,-11.6422 -24.0631,-11.6422 -11.0289,2.9105 7.0184,9.7018 20.0525,16.493 29.0762,16.493 8.021,0 13.0342,-1.9403 11.0289,-3.8807 z M 2449.0179,5572.924 c -9.0236,-8.7316 -28.0736,5.8211 -21.0552,17.4632 4.0105,5.8211 10.0263,5.8211 17.0447,-0.9702 6.0158,-5.821 8.021,-12.6123 4.0105,-16.493 z m 33.0867,-241.5745 c 0,-7.7614 -4.0105,-14.5527 -10.0262,-14.5527 -5.0132,0 -7.0184,6.7913 -4.0106,14.5527 4.0106,7.7614 8.0211,14.5527 10.0263,14.5527 2.0053,0 4.0105,-6.7913 4.0105,-14.5527 z m 146.3837,-248.3657 c -17.0446,-24.2545 -20.0525,-18.4334 -10.0262,18.4334 5.0131,14.5526 10.0262,19.4035 16.042,13.5825 7.0184,-6.7913 5.0132,-17.4633 -6.0158,-32.0159 z m -46.1209,-149.4076 c 0,-7.7614 -4.0105,-14.5526 -10.0262,-14.5526 -5.0132,0 -7.0184,6.7912 -4.0105,14.5526 4.0105,7.7615 8.021,14.5527 10.0262,14.5527 2.0053,0 4.0105,-6.7912 4.0105,-14.5527 z m 253.665,-137.7653 c -7.0184,-1.9404 -19.05,-1.9404 -25.0657,0 -7.0184,2.9105 -2.0053,4.8509 12.0315,4.8509 14.0368,0 19.0499,-1.9404 13.0342,-4.8509 z m 6751.698,-790.6957 c -3.0079,-7.7614 -6.0158,-4.8509 -6.0158,5.8211 -1.0026,10.672 2.0052,16.493 5.0131,12.6123 3.0079,-2.9105 4.0105,-11.6421 1.0027,-18.4334 z M 4203.6172,3157.1791 c -3.0079,-2.9106 -12.0316,-3.8807 -19.05,-0.9702 -8.021,2.9105 -5.0131,5.8211 6.0158,5.8211 11.0289,0.9701 17.0447,-1.9404 13.0342,-4.8509 z m 758.9895,-484.1192 c -4.0105,-7.7614 -8.021,-14.5527 -10.0263,-14.5527 -2.0053,0 -4.0105,6.7913 -4.0105,14.5527 0,7.7614 4.0105,14.5527 10.0263,14.5527 5.0131,0 7.0184,-6.7913 4.0105,-14.5527 z m 1083.841,-257.0974 c 3.0079,-4.8508 1.0026,-9.7017 -4.0105,-9.7017 -6.0158,0 -11.0289,4.8509 -11.0289,9.7017 0,5.8211 2.0053,9.7018 4.0105,9.7018 3.0079,0 8.021,-3.8807 11.0289,-9.7018 z"
         id="path4827"
         style="display:inline;fill:#2d2622;fill-opacity:1;stroke:#2d2622;stroke-width:143.807;stroke-dasharray:none;stroke-opacity:1" /><path
         d="m 9434.7283,5924.9991 c -44.2409,-19.1963 -68.8191,-63.3478 -76.6842,-138.2134 -3.9325,-35.5131 -14.7469,-108.4591 -25.5614,-163.1685 C 9142.7386,4606.213 8442.1733,3897.8251 7449.2119,3539.8141 c -43.2577,-16.3168 -86.5154,-38.3926 -95.3637,-49.9104 -13.7638,-16.3169 -17.6962,-17.2767 -17.6962,-5.7589 0,12.4776 -17.6964,10.558 -119.9419,-17.2766 -287.0741,-76.7852 -483.7,-101.7405 -794.3692,-101.7405 -321.4835,0 -554.4855,31.6739 -844.5088,117.0975 -611.5069,180.4452 -1148.296,542.2956 -1522.8686,1029.8818 -55.0553,71.0263 -111.0937,134.374 -124.8575,140.1329 -85.5323,38.3927 -170.0815,-25.915 -159.2671,-119.9769 2.9494,-30.714 17.6964,-58.5487 59.9709,-113.2582 30.4771,-39.3523 59.971,-71.9862 64.8866,-71.9862 5.8988,0 9.8313,-5.7588 9.8313,-13.4373 0,-20.1561 172.0478,-210.1995 295.9222,-327.297 146.4864,-138.2134 286.0908,-246.6725 460.1049,-358.0111 127.807,-82.5441 369.6569,-210.1995 482.7169,-256.2707 24.5783,-9.598 63.9034,-25.9149 88.4818,-36.4729 24.5782,-10.558 115.0262,-42.2319 201.5416,-69.1067 577.0974,-185.2443 1190.5706,-204.4406 1777.4993,-58.5488 70.7853,18.2365 130.7563,37.4328 132.7226,42.2319 1.9662,5.7589 8.8481,8.6383 15.73,5.7589 5.8989,-1.9196 38.3421,3.8393 69.8023,14.3973 261.5127,82.5441 539.7385,214.9986 782.5716,372.4082 196.626,126.6956 500.4132,381.0467 500.4132,418.4795 0,14.3972 2.9494,17.2767 7.8651,8.6383 8.8481,-13.4374 138.6213,124.7759 249.7151,266.8286 316.5678,402.1626 518.6861,772.6955 603.2353,1274.6789 24.5783,144.932 28.5108,213.0789 13.7639,238.994 -29.4939,53.7496 -98.3131,77.745 -152.3852,54.7094 z m -71.7685,-562.4517 c -19.6626,-12.4775 -42.2746,-12.4775 -34.4096,0 2.9494,5.7589 15.7301,9.5982 27.5276,9.5982 17.6964,0 18.6795,-1.9197 6.882,-9.5982 z M 4342.5206,4030.2796 c -2.9494,-4.799 -11.7975,-9.5981 -17.6963,-9.5981 -6.8819,0 -5.8987,3.8393 2.9494,9.5981 18.6795,11.5179 22.6119,11.5179 14.7469,0 z m 556.4517,-347.453 c -3.9326,-11.5178 -12.7807,-23.0356 -19.6626,-24.9552 -8.8482,-2.8795 -8.8482,1.9196 0,21.1159 14.747,30.7141 31.4601,33.5936 19.6626,3.8393 z M 7596.6814,3504.301 c -2.9494,-2.8795 -10.8144,0 -17.6963,6.7186 -8.8482,9.5982 -7.865,10.558 5.8988,4.7991 9.8313,-2.8794 14.7469,-8.6383 11.7975,-11.5177 z M 6215.3836,3333.4539 c 0,-12.4776 -2.9494,-13.4374 -14.747,-3.8393 -7.8651,6.7187 -21.6289,9.5982 -29.4939,5.7588 -8.8482,-2.8794 -12.7807,-1.9195 -9.8313,3.8394 9.8313,16.3168 54.0722,11.5177 54.0722,-5.7589 z m 437.4929,-23.0356 c 2.9494,-4.7991 1.9662,-9.5982 -3.9326,-9.5982 -4.9156,0 -12.7807,4.7991 -15.7301,9.5982 -2.9493,5.7589 -1.9661,9.5982 3.9326,9.5982 4.9157,0 12.7807,-3.8393 15.7301,-9.5982 z"
         id="path4829"
         style="display:inline;fill:#2d2622;fill-opacity:1;stroke:#2d2622;stroke-width:141.64;stroke-dasharray:none;stroke-opacity:1"
         sodipodi:nodetypes="cccccscscccccsscccsccccccscccccccsccsccccccsccsscccscscsc" /></g></g></svg>
